<?xml version="1.0" encoding="UTF-8"?>
<svg id="Calque_2" data-name="Calque 2" xmlns="http://www.w3.org/2000/svg" viewBox="0 0 71.97 143.99">
  <defs>
    <style>
      .cls-1 {
        fill: #708463;
      }
    </style>
  </defs>
  <g id="Calque_1-2" data-name="Calque 1">
    <path id="Icon_ionic-ios-phone-portrait" data-name="Icon ionic-ios-phone-portrait" class="cls-1" d="M61.59,0H10.64C4.8-.03,.03,4.68,0,10.52c0,.02,0,.04,0,.06v122.44c-.05,5.95,4.69,10.83,10.64,10.97H61.59c5.89-.16,10.54-5.06,10.38-10.96,0,0,0,0,0-.01V10.57C72.11,4.88,67.62,.15,61.92,0c-.11,0-.22,0-.33,0ZM31.17,7.39h9.64c.71,0,1.29,.58,1.29,1.29s-.58,1.29-1.29,1.29h-9.64c-.71,0-1.28-.58-1.28-1.28s.58-1.28,1.28-1.28h0Zm4.98,131.78c-3.09,0-5.59-2.5-5.59-5.59,0-3.09,2.5-5.59,5.59-5.59,3.09,0,5.59,2.5,5.59,5.59h0c0,3.09-2.5,5.59-5.59,5.59Zm30.05-15.75H5.79c-.36,0-.64-.29-.64-.64h0V17.04c0-.36,.29-.64,.64-.64h60.42c.36,0,.64,.29,.64,.64h0V122.76c0,.36-.29,.64-.64,.64h0v.02Z"/>
  </g>
</svg>