<?xml version="1.0" encoding="UTF-8"?>
<svg id="Calque_2" data-name="Calque 2" xmlns="http://www.w3.org/2000/svg" viewBox="0 0 213.15 260.49">
  <defs>
    <style>
      .cls-1 {
        fill: #708463;
      }

      .cls-2 {
        fill: #d6e1cf;
      }
    </style>
  </defs>
  <g id="Calque_1-2" data-name="Calque 1">
    <path class="cls-1" d="M163.49,59.49c34,26,49,88,49,88,6.58,55.44-36.72,103.97-89,105-52.49,1.03-97.76-46.14-93-102,6-36,51.85-91,51.85-91L121.65,0l58.43,76.53"/>
    <path class="cls-2" d="M133.34,67.47c34,26,49,88,49,88,6.58,55.44-36.72,103.97-89,105C40.85,261.5-4.42,214.33,.34,158.47c6-36,51.85-91,51.85-91L91.5,7.98l58.43,76.53"/>
  </g>
</svg>