<?xml version="1.0" encoding="UTF-8"?>
<svg id="Calque_2" data-name="Calque 2" xmlns="http://www.w3.org/2000/svg" viewBox="0 0 31.16 30.38">
  <defs>
    <style>
      .cls-1 {
        fill: #fff;
      }
    </style>
  </defs>
  <g id="Calque_1-2" data-name="Calque 1">
    <path id="Icon_simple-adobeillustrator" data-name="Icon simple-adobeillustrator" class="cls-1" d="M0,0V30.38H31.16V0H0ZM1.3,1.3H29.86V29.09H1.3V1.3Zm9.51,15.91l-1.03,3.9c-.02,.11-.06,.13-.19,.13h-1.9c-.13,0-.15-.04-.13-.19l3.69-12.91c.09-.35,.13-.72,.13-1.08,0-.09,.04-.13,.11-.13h2.72c.09,0,.13,.02,.15,.13l4.14,14.02c.02,.11,0,.17-.11,.17h-2.14c-.11,0-.17-.03-.19-.11l-1.07-3.91h-4.16Zm3.62-2.11c-.36-1.44-1.22-4.58-1.54-6.1h-.02c-.28,1.52-.96,4.09-1.5,6.1h3.07Zm5.84-7.22c-.02-.73,.56-1.34,1.29-1.36s1.34,.56,1.36,1.29c0,.02,0,.05,0,.07,.05,.69-.47,1.28-1.15,1.33-.07,0-.13,0-.2,0-.67,.05-1.26-.45-1.31-1.12,0-.07,0-.14,0-.21h0Zm.15,2.95c0-.1,.04-.14,.15-.14h2.04c.11,0,.16,.04,.16,.15v10.25c0,.11-.02,.15-.15,.15h-2.01c-.13,0-.17-.06-.17-.17V10.83h-.01Z"/>
  </g>
</svg>