<?xml version="1.0" encoding="UTF-8"?>
<svg id="Calque_2" data-name="Calque 2" xmlns="http://www.w3.org/2000/svg" viewBox="0 0 40.1 38.62">
  <defs>
    <style>
      .cls-1 {
        fill: #fff;
      }
    </style>
  </defs>
  <g id="Calque_1-2" data-name="Calque 1">
    <path id="Icon_simple-jquery" data-name="Icon simple-jquery" class="cls-1" d="M2.55,9.07c-3.55,5.1-3.11,11.74-.4,17.16,.06,.13,.13,.26,.2,.38,.04,.09,.08,.17,.13,.25,.02,.05,.05,.09,.08,.14,.04,.09,.09,.17,.14,.25l.26,.44c.05,.08,.1,.16,.15,.24,.09,.16,.2,.31,.3,.47,.04,.07,.08,.13,.13,.2,.16,.25,.34,.5,.52,.74,.13,.18,.26,.35,.4,.53,.05,.06,.1,.13,.14,.19l.37,.45c.05,.05,.09,.11,.14,.17,.16,.2,.34,.39,.51,.58,0,0,0,0,0,.01,.21,.27,.45,.51,.71,.74,.13,.14,.27,.27,.41,.41l.17,.16c.18,.17,.37,.35,.57,.52,0,0,0,0,0,0l.1,.08c.17,.15,.34,.3,.52,.44l.21,.18c.14,.11,.29,.22,.44,.33l.23,.17c.16,.12,.32,.23,.48,.35,.06,.04,.12,.08,.18,.12l.05,.04,.47,.31,.2,.13c.24,.16,.49,.3,.73,.45,.07,.04,.14,.07,.21,.11,.18,.1,.37,.21,.55,.3,.1,.06,.2,.11,.31,.16,.13,.07,.26,.14,.39,.21,.03,0,.06,.02,.09,.04,.06,.02,.11,.05,.16,.08,.2,.1,.41,.2,.63,.29,.04,.02,.09,.04,.13,.06,.24,.11,.48,.21,.73,.3,.06,.02,.12,.05,.18,.07,.23,.09,.46,.17,.69,.25l.08,.03c.26,.09,.51,.17,.77,.25,.06,.02,.12,.04,.18,.06,.26,.09,.52,.16,.79,.23,17.16,3.13,22.15-10.32,22.15-10.32-4.19,5.46-11.63,6.9-18.67,5.29-.26-.06-.52-.14-.78-.22-.32-.09-.63-.2-.95-.3l-.1-.04c-.23-.08-.45-.16-.67-.25-.06-.03-.12-.05-.18-.07-.24-.1-.49-.2-.72-.3-.05-.02-.1-.04-.15-.06-.2-.09-.4-.19-.6-.28-.06-.03-.12-.06-.18-.09-.16-.07-.31-.16-.47-.24-.11-.05-.21-.1-.31-.16-.19-.1-.38-.21-.57-.31-.06-.04-.12-.07-.19-.11-.25-.15-.49-.3-.73-.45-.07-.04-.13-.08-.2-.13-.18-.11-.35-.22-.52-.34-.06-.04-.11-.08-.17-.12-.17-.11-.33-.23-.49-.35-.07-.06-.15-.11-.22-.17-.15-.12-.3-.23-.44-.35l-.2-.16c-.19-.15-.38-.31-.56-.47-.02-.02-.04-.04-.06-.05l-.58-.53-.17-.16c-.14-.14-.28-.27-.42-.41l-.16-.17c-.18-.18-.35-.36-.52-.54l-.02-.03c-.18-.19-.35-.39-.52-.59-.05-.05-.09-.11-.13-.16l-.38-.46c-.19-.25-.38-.5-.57-.75C3.59,18.96,2.18,11.6,5.31,5.56m8.26-.79c-2.57,3.7-2.43,8.64-.43,12.54,.33,.66,.71,1.29,1.13,1.89,.37,.6,.82,1.15,1.32,1.65,.18,.2,.37,.4,.58,.6l.15,.15c.19,.18,.39,.37,.59,.54l.02,.02c.23,.2,.46,.39,.69,.57,.06,.04,.11,.08,.16,.12,.23,.18,.47,.35,.71,.53l.02,.02c.1,.08,.21,.14,.33,.22,.05,.03,.1,.07,.15,.1,.18,.11,.35,.22,.53,.33,.03,.01,.05,.03,.08,.04,.15,.09,.31,.18,.47,.26,.06,.03,.11,.06,.17,.09,.11,.06,.22,.11,.33,.17l.05,.02c.23,.11,.46,.21,.68,.32,.06,.02,.11,.04,.15,.06,.18,.08,.37,.16,.56,.23,.08,.03,.16,.06,.24,.09,.17,.06,.35,.12,.52,.18l.23,.08c.24,.09,.49,.16,.75,.22,13.25,2.19,16.32-8.01,16.32-8.01-2.76,3.97-8.11,5.87-13.8,4.39-.25-.07-.5-.14-.75-.22-.08-.02-.15-.05-.23-.07-.17-.06-.35-.12-.52-.18l-.24-.09c-.19-.08-.38-.15-.56-.23-.06-.02-.11-.04-.15-.07-.23-.11-.47-.21-.7-.32l-.34-.18-.2-.1c-.15-.08-.3-.16-.44-.25-.04-.02-.07-.04-.1-.06-.18-.11-.36-.22-.53-.33-.06-.03-.11-.07-.16-.1l-.35-.23c-.24-.17-.48-.35-.71-.52-.05-.05-.11-.09-.16-.13-2.54-1.96-4.43-4.65-5.41-7.7-1.05-3.19-.71-6.67,.94-9.6m7.17-.24c-1.48,2.21-1.71,5.03-.62,7.45,1.16,2.62,3.34,4.65,6.03,5.63,.11,.04,.21,.08,.33,.12l.15,.05c.15,.05,.31,.11,.47,.14,7.32,1.41,9.3-3.76,9.83-4.52-1.74,2.5-4.67,3.1-8.25,2.23-.29-.07-.58-.16-.86-.27-.35-.12-.7-.27-1.03-.43-.64-.31-1.24-.68-1.81-1.1-3.21-2.43-5.2-7.08-3.11-10.86"/>
  </g>
</svg>