<?xml version="1.0" encoding="UTF-8"?>
<svg id="Calque_2" data-name="Calque 2" xmlns="http://www.w3.org/2000/svg" viewBox="0 0 27.27 21.43">
  <defs>
    <style>
      .cls-1 {
        fill: #fff;
      }
    </style>
  </defs>
  <g id="Calque_1-2" data-name="Calque 1">
    <g id="Icon_ionic-logo-javascript" data-name="Icon ionic-logo-javascript">
      <path id="Tracé_116" data-name="Tracé 116" class="cls-1" d="M10.71,.49H5.84V13.42c0,3.2-1.1,4.09-3.01,4.09-.79,0-1.58-.12-2.33-.37l-.51,3.79c1.08,.33,2.21,.49,3.34,.49,4.39,0,7.37-2.06,7.37-7.97V.49Z"/>
      <path id="Tracé_117" data-name="Tracé 117" class="cls-1" d="M21.33,0C16.62,0,13.63,2.68,13.63,6.22c0,3.05,2.3,4.96,5.64,6.19,2.42,.87,3.37,1.63,3.37,2.89,0,1.39-1.1,2.28-3.19,2.28-1.71-.03-3.39-.47-4.89-1.29h0l-.92,3.84c1.72,.87,3.62,1.31,5.55,1.3,5.52,0,8.09-2.96,8.09-6.43,0-2.96-1.64-4.86-5.19-6.22-2.62-1.05-3.73-1.63-3.73-2.96,0-1.05,.95-2,2.92-2,1.42,0,2.81,.37,4.05,1.05l1.16-3.9C24.85,.29,23.1-.04,21.33,0Z"/>
    </g>
  </g>
</svg>