<?xml version="1.0" encoding="UTF-8"?>
<svg id="Calque_2" data-name="Calque 2" xmlns="http://www.w3.org/2000/svg" viewBox="0 0 159.92 159.72">
  <defs>
    <style>
      .cls-1 {
        fill: #708163;
      }
    </style>
  </defs>
  <g id="Calque_1-2" data-name="Calque 1">
    <path id="Icon_awesome-linkedin-in" data-name="Icon awesome-linkedin-in" class="cls-1" d="M35.95,159.72H2.84V53.08H35.95v106.64ZM19.37,38.54C8.73,38.59,.05,30.01,0,19.37-.05,8.73,8.53,.05,19.17,0c10.64-.05,19.31,8.53,19.37,19.17,.02,10.63-8.54,19.27-19.17,19.37Zm140.51,121.19h-33.03v-51.91c0-12.37-.25-28.24-17.22-28.24s-19.85,13.44-19.85,27.35v52.8H56.69V53.08h31.76v14.55h.46c4.42-8.38,15.22-17.22,31.33-17.22,33.51,0,39.67,22.07,39.67,50.74v58.58h-.05Z"/>
  </g>
</svg>