<svg xmlns="http://www.w3.org/2000/svg" viewBox="0 0 211 80.6"><defs><style>.cls-1{fill:#f8bc45;}</style></defs><title>Asset 4</title><g id="Layer_2" data-name="Layer 2"><g id="Layer_1-2" data-name="Layer 1"><path class="cls-1" d="M0,58,35.6,39.7V45L5.6,60v.2l30,15v5.3L0,62.1Z"/><path class="cls-1" d="M116.1,0V80.6h-4.6V9.4L83.3,69.9l-2.5,5.4h0l-2.4,5.2H73.3L59,49.9V80.6H54.4V29.2l21.4,46L78.2,70,64.5,40.3,50.1,9.4V80.6H45.5V0h5.2V.1L67,35.2l2.4,5.2L80.7,64.7,110.9,0Z"/><path class="cls-1" d="M161.3,21.4v-.1a16.7,16.7,0,0,0-33.4,0v38a16.7,16.7,0,0,0,33.4.4V42.6H144.5V38h21.4V80.6h-4.6V72.5a21.29,21.29,0,0,1-38-13.2v-38a21.3,21.3,0,0,1,42.6,0v.1Zm-8.6,0v-.1a8,8,0,0,0-16,0v.1h0V42.6h-4.6V21.2h0a12.6,12.6,0,0,1,25.2.1v.1Zm-16,37.8v.1a8,8,0,1,0,16,0v-.1h4.6v.1a12.6,12.6,0,0,1-25.2,0v-.1Z"/><path class="cls-1" d="M211,62.2,175.4,80.5V75.2l30.3-15V60L175.4,45V39.7L211,58Z"/></g></g></svg>