<?xml version="1.0" encoding="UTF-8"?>
<svg id="Calque_2" data-name="Calque 2" xmlns="http://www.w3.org/2000/svg" viewBox="0 0 211 80.6">
  <defs>
    <style>
      .cls-1 {
        fill: #708463;
      }
    </style>
  </defs>
  <g id="Layer_1" data-name="Layer 1">
    <g>
      <path class="cls-1" d="M0,58l35.6-18.3v5.3L5.6,60v.2l30,15v5.3L0,62.1v-4.1Z"/>
      <path class="cls-1" d="M116.1,0V80.6h-4.6V9.4l-28.2,60.5-2.5,5.4h0l-2.4,5.2h-5.1l-14.3-30.6v30.7h-4.6V29.2l21.4,46,2.4-5.2-13.7-29.7-14.4-30.9V80.6h-4.6V0h5.2V.1l16.3,35.1,2.4,5.2,11.3,24.3L110.9,0h5.2Z"/>
      <path class="cls-1" d="M161.3,21.4v-.1c0-9.2-7.5-16.7-16.7-16.7s-16.7,7.5-16.7,16.7V59.3c0,9.2,7.5,16.7,16.7,16.7s16.5-7.3,16.7-16.3v-17.1h-16.8v-4.6h21.4v42.6h-4.6v-8.1c-3.9,4.9-9.9,8.1-16.7,8.1-11.7,0-21.3-9.5-21.3-21.3V21.3C123.3,9.6,132.8,0,144.6,0s21.3,9.5,21.3,21.3v.1s-4.6,0-4.6,0Zm-8.6,0v-.1c0-4.4-3.6-8-8-8s-8,3.6-8,8v.1h0v21.2h-4.6V21.2h0c0-6.9,5.7-12.5,12.6-12.5s12.6,5.6,12.6,12.6v.1s-4.6,0-4.6,0Zm-16,37.8v.1c0,4.4,3.6,8,8,8s8-3.6,8-8v-.1h4.6v.1c0,6.9-5.6,12.6-12.6,12.6s-12.6-5.6-12.6-12.6v-.1h4.6Z"/>
      <path class="cls-1" d="M211,62.2l-35.6,18.3v-5.3l30.3-15v-.2l-30.3-15v-5.3l35.6,18.3v4.2Z"/>
    </g>
  </g>
</svg>