<?xml version="1.0" encoding="utf-8"?>
<!-- Generator: Adobe Illustrator 21.1.0, SVG Export Plug-In . SVG Version: 6.00 Build 0)  -->
<svg version="1.1" id="Layer_1" xmlns="http://www.w3.org/2000/svg" xmlns:xlink="http://www.w3.org/1999/xlink" x="0px" y="0px"
	 viewBox="0 0 259.2 144" style="enable-background:new 0 0 259.2 144;" xml:space="preserve">
<style type="text/css">
	.st0{fill:#616577;}
</style>
<g>
	<path class="st0" d="M24.1,89.8l35.6-18.3v5.3l-30,15v0.2l30,15v5.3L24.1,93.9V89.8z"/>
	<path class="st0" d="M140.2,31.8v80.6h-4.6V41.2l-28.2,60.5l-2.5,5.4l0,0l-2.4,5.2l0,0h-5.1l0,0l0,0L83.1,81.7v30.7h-4.6V61
		L99.9,107l2.4-5.2L88.6,72.1L74.2,41.2v71.2h-4.6V31.8h5.2l0,0.1l16.3,35.1l2.4,5.2l11.3,24.3L135,31.8H140.2z"/>
	<path class="st0" d="M185.4,53.2v-0.1c0-9.2-7.5-16.7-16.7-16.7c-9.2,0-16.7,7.5-16.7,16.7v38c0,9.2,7.5,16.7,16.7,16.7
		c9.1,0,16.5-7.3,16.7-16.3V74.4h-16.8v-4.6H190v42.6h-4.6v-8.1c-3.9,4.9-9.9,8.1-16.7,8.1c-11.7,0-21.3-9.5-21.3-21.3v-38
		c0-11.7,9.5-21.3,21.3-21.3S190,41.3,190,53.1v0.1H185.4z M176.8,53.2v-0.1c0-4.4-3.6-8-8-8c-4.4,0-8,3.6-8,8v0.1h0v21.2h-4.6V53h0
		c0-6.9,5.7-12.5,12.6-12.5c6.9,0,12.6,5.6,12.6,12.6v0.1H176.8z M160.8,91v0.1c0,4.4,3.6,8,8,8c4.4,0,8-3.6,8-8V91h4.6v0.1
		c0,6.9-5.6,12.6-12.6,12.6c-6.9,0-12.6-5.6-12.6-12.6V91H160.8z"/>
	<path class="st0" d="M235.1,94l-35.6,18.3V107l30.3-15v-0.2l-30.3-15v-5.3l35.6,18.3V94z"/>
</g>
</svg>
