<?xml version="1.0" encoding="UTF-8"?>
<svg id="Calque_2" data-name="Calque 2" xmlns="http://www.w3.org/2000/svg" viewBox="0 0 31.16 30.38">
  <defs>
    <style>
      .cls-1 {
        fill: #fff;
      }
    </style>
  </defs>
  <g id="Calque_1-2" data-name="Calque 1">
    <path id="Icon_simple-adobephotoshop" data-name="Icon simple-adobephotoshop" class="cls-1" d="M0,0V30.38H31.16V0H0ZM1.3,1.3H29.86V29.09H1.3V1.3ZM7.53,7.12c0-.09,.18-.15,.29-.15,.84-.04,2.06-.06,3.35-.06,3.6,0,5,1.97,5,4.5,0,3.3-2.39,4.71-5.33,4.71-.49,0-.66-.02-1.01-.02v4.99c0,.11-.04,.15-.15,.15h-2c-.11,0-.15-.04-.15-.15V7.12h0Zm2.3,6.9c.3,.02,.53,.02,1.05,.02,1.52,0,2.94-.53,2.94-2.59,0-1.64-1.02-2.49-2.76-2.49-.51,0-1.01,.02-1.24,.04v5.02h0Zm11.18-1.55c-1.03,0-1.37,.51-1.37,.94,0,.47,.23,.79,1.61,1.5,2.04,.99,2.68,1.93,2.68,3.32,0,2.08-1.58,3.19-3.73,3.19-.92,.03-1.83-.16-2.66-.56-.09-.04-.1-.11-.1-.21v-1.9c0-.13,.06-.17,.15-.11,.78,.5,1.69,.77,2.61,.77,1.03,0,1.46-.43,1.46-1.01,0-.47-.3-.88-1.61-1.57-1.84-.88-2.62-1.78-2.62-3.28,0-1.67,1.31-3.06,3.58-3.06,.79-.03,1.58,.09,2.33,.36,.09,.06,.14,.16,.13,.26v1.78c0,.11-.06,.17-.19,.13-.69-.38-1.47-.57-2.26-.56h0Z"/>
  </g>
</svg>