<?xml version="1.0" encoding="UTF-8"?>
<svg id="Calque_2" data-name="Calque 2" xmlns="http://www.w3.org/2000/svg" viewBox="0 0 38.95 20.49">
  <defs>
    <style>
      .cls-1 {
        fill: #fff;
      }
    </style>
  </defs>
  <g id="Calque_1-2" data-name="Calque 1">
    <path id="Icon_awesome-php" data-name="Icon awesome-php" class="cls-1" d="M19.48,1.02c10.43,0,18.45,4.39,18.45,9.22s-8.03,9.22-18.45,9.22S1.02,15.07,1.02,10.24,9.05,1.02,19.48,1.02M19.48,0C8.72,0,0,4.58,0,10.24s8.72,10.24,19.48,10.24,19.48-4.58,19.48-10.24S30.23,0,19.48,0h0Zm-6.2,9.42c-.48,2.47-2.18,2.21-4.27,2.21l.83-4.3c2.31,0,3.88-.25,3.43,2.09Zm-7.35,6.56h2.23l.53-2.73c2.5,0,4.05,.18,5.49-1.16,1.59-1.46,2-4.06,.87-5.36-.75-.74-1.78-1.11-2.83-1.02H7.92l-1.99,10.27ZM17.23,2.98h2.22l-.53,2.73c1.92,0,3.69-.14,4.55,.65,.9,.83,.47,1.89-.51,6.88h-2.25c.94-4.83,1.11-5.23,.77-5.6s-1.08-.28-2.89-.28l-1.14,5.88h-2.22l1.99-10.26h0Zm13.5,6.44c-.49,2.5-2.23,2.21-4.27,2.21l.83-4.3c2.33,0,3.89-.25,3.44,2.09h0Zm-7.35,6.56h2.24l.53-2.73c2.63,0,4.08,.15,5.49-1.16,1.59-1.46,2-4.06,.87-5.36-.75-.74-1.78-1.11-2.83-1.02h-4.3l-2,10.27h0Z"/>
  </g>
</svg>