<?xml version="1.0" encoding="UTF-8"?>
<svg id="Calque_2" data-name="Calque 2" xmlns="http://www.w3.org/2000/svg" viewBox="0 0 31.16 31.16">
  <defs>
    <style>
      .cls-1 {
        fill: #fff;
      }
    </style>
  </defs>
  <g id="Calque_1-2" data-name="Calque 1">
    <path id="Icon_zocial-wordpress" data-name="Icon zocial-wordpress" class="cls-1" d="M0,15.58c-.02-2.75,.7-5.45,2.09-7.82,1.36-2.36,3.32-4.31,5.67-5.67C10.13,.7,12.83-.02,15.58,0c2.75-.02,5.45,.7,7.82,2.09,2.36,1.36,4.31,3.32,5.67,5.67,1.39,2.37,2.11,5.07,2.09,7.82,.02,2.75-.7,5.45-2.09,7.82-1.36,2.36-3.32,4.31-5.67,5.67-2.37,1.39-5.07,2.11-7.82,2.09-2.75,.02-5.45-.7-7.82-2.09-2.36-1.36-4.31-3.32-5.67-5.67C.7,21.03-.02,18.33,0,15.58Zm1.21,0c0,5.51,3.14,10.54,8.1,12.93L2.46,9.72c-.83,1.84-1.26,3.84-1.25,5.86ZM3.55,7.7h.93c1,0,2.27-.06,3.83-.19,.22-.04,.43,.06,.55,.25,.11,.18,.13,.4,.05,.59-.08,.21-.28,.34-.5,.35l-1.65,.16,5.24,15.55,3.15-9.41-2.25-6.14c-.5-.06-1-.11-1.5-.16-.22,0-.42-.14-.5-.35-.08-.19-.06-.41,.05-.59,.11-.19,.33-.29,.55-.25l3.77,.19c1.02,0,2.3-.06,3.83-.19,.22-.04,.43,.06,.55,.25,.11,.18,.13,.4,.05,.59-.08,.21-.28,.34-.5,.35l-1.62,.16,5.17,15.45,1.43-4.8c.54-1.5,.92-3.06,1.13-4.64-.02-1.42-.44-2.8-1.21-3.99-.04-.06-.17-.28-.39-.65-.22-.37-.36-.62-.43-.73-.06-.12-.16-.31-.28-.59-.11-.23-.19-.48-.25-.73-.04-.22-.06-.43-.06-.65,0-.67,.24-1.31,.7-1.79,.44-.5,1.07-.78,1.73-.76,.03,0,.06,0,.09,.02s.06,.01,.09,.02c-2.63-2.48-6.12-3.83-9.72-3.77-2.41-.02-4.78,.58-6.89,1.75-2.08,1.13-3.85,2.76-5.15,4.74Zm7.98,21.69c1.32,.38,2.68,.57,4.05,.56,1.62,0,3.24-.27,4.77-.81l-.09-.19-4.43-12.12-4.3,12.56Zm11.28-1.37c4.43-2.58,7.15-7.31,7.14-12.43,.02-2.41-.58-4.78-1.75-6.89,.07,.49,.1,.97,.09,1.46-.09,1.76-.46,3.5-1.09,5.14l-4.39,12.71Z"/>
  </g>
</svg>