<svg xmlns="http://www.w3.org/2000/svg" viewBox="0 0 851.89 867.29"><defs><style>.cls-1{fill:#fff;}</style></defs><title>Asset 2</title><g id="Layer_2" data-name="Layer 2"><g id="Graphic_Elements" data-name="Graphic Elements"><path class="cls-1" d="M312.05,700.41c-.53,2.79-1.19,6.27-.1,9.88,1.56,5.13,5.94,8.16,8.83,10.16,20.06,13.85,42.78,29.56,69.48,32.74a95.68,95.68,0,0,0,11.32.63,225.34,225.34,0,0,0,26.3-2.05l146.33-17.3a5,5,0,0,0,2.29-9.05,411.94,411.94,0,0,0-64.17-37.09c10-31.54,11.54-64.66,12.69-96.86,94.7-4.46,190.81-7.8,290.22-10.12,6.08-.14,13.66-.32,20.12-4.25,10.62-6.48,13.25-19.68,14.37-30.46,2.95-28.63,2.34-56.86,1.31-88.16-4.7-143.62-14.63-288.92-29.52-431.84a4.85,4.85,0,0,0-.09-.55l-.71-3.26a4.92,4.92,0,0,0-.77-1.77C810.49,7.31,792.09,5.82,775.34,6.18,530.45,11.39,282.2,9.43,37.34.36c-.86-.07-1.75-.11-2.68-.1L28,0A5,5,0,0,0,24,1.69C14.44,4.19,4.93,10,2,19.28-.8,28-.06,36.88.66,45.44c.26,3,.5,5.92.59,8.79,1.1,34,2.07,68.82,3,102.46C8.41,303.89,12.7,456.11,28.1,604.82c.41,3.94,3.39,7.66,8.87,11.06,5.19,3.22,13.82,6.59,21,7.24a5.69,5.69,0,0,0,.83.06c.51,0,1,.05,1.5.05a15.83,15.83,0,0,0,4.39-.56c86.61-7.64,171.82-14.2,257.06-19.78A546.47,546.47,0,0,1,312.05,700.41Zm190.12-13.15a4.86,4.86,0,0,0-.22,1.45,5,5,0,0,0-1.41-.28A903.32,903.32,0,0,0,343,696.27a5,5,0,0,0,.68,10,5.34,5.34,0,0,0,.69-.05,893.13,893.13,0,0,1,155.82-7.76,4.93,4.93,0,0,0,4.63-2.73,4.81,4.81,0,0,0,1,.62,402.07,402.07,0,0,1,53.95,29.8l-133,15.73c-11.64,1.37-23.69,2.79-35.26,1.42-24.23-2.89-45.88-17.85-65-31-2.32-1.6-4.45-3.18-5-4.83-.38-1.26,0-3.21.36-5.1a558,558,0,0,0,9.84-100c60.87-3.92,121.79-7.35,183.27-10.3C513.85,623.89,512.27,656.7,502.17,687.26ZM58.63,613.17a43,43,0,0,1-13.05-4c-5.07-2.44-7.24-4.73-7.54-5.5C22.68,455.39,18.4,303.4,14.27,156.4c-.95-33.65-1.93-68.44-3-102.49-.11-3.13-.37-6.27-.62-9.3-.67-8-1.3-15.45.88-22.3,2.25-7.11,13.47-12,22.73-12.06,245.93,9.17,495.32,11.16,741.32,5.92,14.4-.31,28.64.7,35.61,9.81l.43,2c14.85,142.6,24.76,287.56,29.45,430.86,1,30.92,1.61,58.8-1.27,86.81-.88,8.48-2.76,18.75-9.63,22.94-4.17,2.54-10,2.67-15.15,2.79C551.47,577.5,311.1,590.79,58.63,613.17Z"/><path class="cls-1" d="M818.92,730.05c-1.34-.83-33.27-20-79.62-2.37-1.44.54-2.94,1-4.54,1.53-4.44,1.41-9.48,3-13.63,6.56-5.6,4.76-10,13.35-7.11,21.78a25.72,25.72,0,0,0,5.91,9C743.42,792,776.74,801,800.55,804.1a88.67,88.67,0,0,0,11.38.77c15.75,0,27.14-5,33.27-14.65a32.17,32.17,0,0,0,4.36-11.72C853.85,754.41,834.11,739.3,818.92,730.05Zm20.79,46.7a22.58,22.58,0,0,1-3,8.12c-7,11.11-24.91,10.6-34.93,9.31-22.17-2.85-53.1-11.13-74.55-34.38a16.64,16.64,0,0,1-3.79-5.46c-1.28-3.8,1.1-8.39,4.12-11,2.62-2.24,6.29-3.4,10.19-4.64,1.65-.53,3.36-1.07,5.05-1.72a98,98,0,0,1,35-6.67c22,0,35.66,8.1,35.86,8.22C834.17,751,842.19,762.82,839.71,776.75Z"/><path class="cls-1" d="M730.79,802.06c-10.32-7.83-21.89-15.75-33.08-23.4-14.08-9.63-28.63-19.58-40.6-29.32a5,5,0,0,0-5.36-3.85L497.56,761.35c-44.24,4.56-90.22,8.23-134.67,11.79-44.28,3.54-90.06,7.2-134.19,11.74a6.57,6.57,0,0,0-5.19,1.51c-3.26,2.76-4.2,9.07-2.78,18.74.94,6.43,5.82,11,9,14L263,850c5.93,5.53,12.65,11.79,21.38,14.81a47.41,47.41,0,0,0,15.73,2.46,72.4,72.4,0,0,0,8.83-.57c52.87-6.49,106.35-10.93,158.06-15.21C557.1,844,642.22,837,726.71,819.89a10,10,0,0,0,4.08-17.83ZM466.15,841.54c-51.82,4.29-105.39,8.74-158.46,15.26-7.94,1-14.51.51-20.07-1.42-6.73-2.33-12.37-7.59-17.84-12.68l-33.2-30.92c-2.91-2.71-5.55-5.37-6-8.1a39.38,39.38,0,0,1-.38-8.91c43.86-4.49,89.39-8.14,133.43-11.66,44.52-3.56,90.55-7.24,134.9-11.81l150.86-15.52a4.93,4.93,0,0,0,.83.88c12.39,10.15,27.34,20.37,41.79,30.25,11.09,7.59,22.56,15.43,32.67,23.18C640.81,827.06,556,834.09,466.15,841.54Z"/><path class="cls-1" d="M818.68,469.65a5,5,0,0,0,4.25-5c-.58-142.53-7.26-286.79-19.85-428.77A5,5,0,0,0,798,31.36a5,5,0,0,0-3.41,1.45C541,29.29,284,28.27,30.43,29.76a5.06,5.06,0,0,0-3.36,1.33l-.21.2a5,5,0,0,0-1.61,3.82C29.79,191.39,38.78,349.63,52,505.42A5,5,0,0,0,57,510h.2c173.33-6.67,350.24-16.73,521.33-26.46,78.08-4.44,158.82-9,238-13.23A5.08,5.08,0,0,0,818.68,469.65Zm-240.76,3.89c-169.48,9.65-344.66,19.61-516.38,26.28C48.72,347.38,39.93,192.65,35.39,39.74c251.61-1.46,506.68-.42,758.26,3,12.1,138.36,18.58,278.82,19.26,417.68C734.7,464.63,655,469.16,577.92,473.54Z"/><path class="cls-1" d="M672.29,792.45l-374.08,38a5,5,0,0,0,.49,10,4.61,4.61,0,0,0,.52,0l374.08-38a5,5,0,0,0-1-9.95Z"/><path class="cls-1" d="M631,780.37a5,5,0,0,0-5.45-4.5L271.74,810a5,5,0,0,0,.47,10,4,4,0,0,0,.49,0l353.81-34.08A5,5,0,0,0,631,780.37Z"/></g></g></svg>